<mxfile host="app.diagrams.net" modified="2024-04-25T12:08:33.059Z" agent="Mozilla/5.0 (Windows NT 10.0; Win64; x64) AppleWebKit/537.36 (KHTML, like Gecko) Chrome/124.0.0.0 Safari/537.36" etag="bb-BXot_cDmJZLgjwuz9" version="24.3.0" type="device">
  <diagram name="Página-1" id="8n8IsKH4eI0FIfOJGMiw">
    <mxGraphModel dx="1114" dy="600" grid="1" gridSize="10" guides="1" tooltips="1" connect="1" arrows="1" fold="1" page="1" pageScale="1" pageWidth="827" pageHeight="1169" math="0" shadow="0">
      <root>
        <mxCell id="0" />
        <mxCell id="1" parent="0" />
        <mxCell id="cMItMVhZmOPaR7eOhh5o-3" style="edgeStyle=orthogonalEdgeStyle;rounded=0;orthogonalLoop=1;jettySize=auto;html=1;" edge="1" parent="1" source="cMItMVhZmOPaR7eOhh5o-1" target="cMItMVhZmOPaR7eOhh5o-2">
          <mxGeometry relative="1" as="geometry" />
        </mxCell>
        <mxCell id="cMItMVhZmOPaR7eOhh5o-1" value="" style="ellipse;whiteSpace=wrap;html=1;aspect=fixed;fillColor=#d80073;strokeColor=#A50040;fontColor=#ffffff;" vertex="1" parent="1">
          <mxGeometry x="389" y="40" width="50" height="50" as="geometry" />
        </mxCell>
        <mxCell id="cMItMVhZmOPaR7eOhh5o-8" style="edgeStyle=orthogonalEdgeStyle;rounded=0;orthogonalLoop=1;jettySize=auto;html=1;" edge="1" parent="1" source="cMItMVhZmOPaR7eOhh5o-2" target="cMItMVhZmOPaR7eOhh5o-7">
          <mxGeometry relative="1" as="geometry" />
        </mxCell>
        <mxCell id="cMItMVhZmOPaR7eOhh5o-2" value="tela inicial cadastro" style="rounded=0;whiteSpace=wrap;html=1;" vertex="1" parent="1">
          <mxGeometry x="354" y="120" width="120" height="60" as="geometry" />
        </mxCell>
        <mxCell id="cMItMVhZmOPaR7eOhh5o-12" value="email válido?" style="edgeStyle=orthogonalEdgeStyle;rounded=0;orthogonalLoop=1;jettySize=auto;html=1;" edge="1" parent="1" source="cMItMVhZmOPaR7eOhh5o-7" target="cMItMVhZmOPaR7eOhh5o-9">
          <mxGeometry relative="1" as="geometry" />
        </mxCell>
        <mxCell id="cMItMVhZmOPaR7eOhh5o-7" value="inserir email" style="rounded=0;whiteSpace=wrap;html=1;" vertex="1" parent="1">
          <mxGeometry x="354" y="220" width="120" height="60" as="geometry" />
        </mxCell>
        <mxCell id="cMItMVhZmOPaR7eOhh5o-13" value="sim" style="edgeStyle=orthogonalEdgeStyle;rounded=0;orthogonalLoop=1;jettySize=auto;html=1;" edge="1" parent="1" source="cMItMVhZmOPaR7eOhh5o-9" target="cMItMVhZmOPaR7eOhh5o-11">
          <mxGeometry relative="1" as="geometry" />
        </mxCell>
        <mxCell id="cMItMVhZmOPaR7eOhh5o-14" value="não" style="edgeStyle=orthogonalEdgeStyle;rounded=0;orthogonalLoop=1;jettySize=auto;html=1;" edge="1" parent="1" source="cMItMVhZmOPaR7eOhh5o-9" target="cMItMVhZmOPaR7eOhh5o-10">
          <mxGeometry relative="1" as="geometry" />
        </mxCell>
        <mxCell id="cMItMVhZmOPaR7eOhh5o-9" value="" style="rhombus;whiteSpace=wrap;html=1;" vertex="1" parent="1">
          <mxGeometry x="383" y="320" width="61" height="60" as="geometry" />
        </mxCell>
        <mxCell id="cMItMVhZmOPaR7eOhh5o-16" style="edgeStyle=orthogonalEdgeStyle;rounded=0;orthogonalLoop=1;jettySize=auto;html=1;entryX=0;entryY=0.5;entryDx=0;entryDy=0;" edge="1" parent="1" source="cMItMVhZmOPaR7eOhh5o-10" target="cMItMVhZmOPaR7eOhh5o-2">
          <mxGeometry relative="1" as="geometry">
            <Array as="points">
              <mxPoint x="200" y="430" />
              <mxPoint x="200" y="150" />
            </Array>
          </mxGeometry>
        </mxCell>
        <mxCell id="cMItMVhZmOPaR7eOhh5o-10" value="mensagem de erro" style="rounded=0;whiteSpace=wrap;html=1;" vertex="1" parent="1">
          <mxGeometry x="234" y="400" width="120" height="60" as="geometry" />
        </mxCell>
        <mxCell id="cMItMVhZmOPaR7eOhh5o-27" style="edgeStyle=orthogonalEdgeStyle;rounded=0;orthogonalLoop=1;jettySize=auto;html=1;entryX=0.5;entryY=0;entryDx=0;entryDy=0;" edge="1" parent="1" source="cMItMVhZmOPaR7eOhh5o-11" target="cMItMVhZmOPaR7eOhh5o-22">
          <mxGeometry relative="1" as="geometry" />
        </mxCell>
        <mxCell id="cMItMVhZmOPaR7eOhh5o-11" value="inserir senha" style="rounded=0;whiteSpace=wrap;html=1;" vertex="1" parent="1">
          <mxGeometry x="500" y="400" width="120" height="60" as="geometry" />
        </mxCell>
        <mxCell id="cMItMVhZmOPaR7eOhh5o-25" value="sim" style="edgeStyle=orthogonalEdgeStyle;rounded=0;orthogonalLoop=1;jettySize=auto;html=1;exitX=1;exitY=0.5;exitDx=0;exitDy=0;entryX=0.5;entryY=1;entryDx=0;entryDy=0;" edge="1" parent="1" source="cMItMVhZmOPaR7eOhh5o-22" target="cMItMVhZmOPaR7eOhh5o-29">
          <mxGeometry relative="1" as="geometry">
            <mxPoint x="560" y="550" as="targetPoint" />
            <Array as="points">
              <mxPoint x="570" y="520" />
            </Array>
          </mxGeometry>
        </mxCell>
        <mxCell id="cMItMVhZmOPaR7eOhh5o-26" value="não" style="edgeStyle=orthogonalEdgeStyle;rounded=0;orthogonalLoop=1;jettySize=auto;html=1;entryX=0.5;entryY=1;entryDx=0;entryDy=0;" edge="1" parent="1" source="cMItMVhZmOPaR7eOhh5o-22" target="cMItMVhZmOPaR7eOhh5o-10">
          <mxGeometry relative="1" as="geometry" />
        </mxCell>
        <mxCell id="cMItMVhZmOPaR7eOhh5o-22" value="" style="rhombus;whiteSpace=wrap;html=1;" vertex="1" parent="1">
          <mxGeometry x="390" y="490" width="60" height="60" as="geometry" />
        </mxCell>
        <mxCell id="cMItMVhZmOPaR7eOhh5o-35" style="edgeStyle=orthogonalEdgeStyle;rounded=0;orthogonalLoop=1;jettySize=auto;html=1;entryX=0.5;entryY=0;entryDx=0;entryDy=0;" edge="1" parent="1" source="cMItMVhZmOPaR7eOhh5o-29" target="cMItMVhZmOPaR7eOhh5o-31">
          <mxGeometry relative="1" as="geometry" />
        </mxCell>
        <mxCell id="cMItMVhZmOPaR7eOhh5o-29" value="tela de problemas" style="rounded=0;whiteSpace=wrap;html=1;direction=west;" vertex="1" parent="1">
          <mxGeometry x="510" y="550" width="120" height="60" as="geometry" />
        </mxCell>
        <mxCell id="cMItMVhZmOPaR7eOhh5o-37" value="preenchido" style="edgeStyle=orthogonalEdgeStyle;rounded=0;orthogonalLoop=1;jettySize=auto;html=1;" edge="1" parent="1" source="cMItMVhZmOPaR7eOhh5o-31" target="cMItMVhZmOPaR7eOhh5o-36">
          <mxGeometry relative="1" as="geometry" />
        </mxCell>
        <mxCell id="cMItMVhZmOPaR7eOhh5o-31" value="campo problema" style="rounded=0;whiteSpace=wrap;html=1;" vertex="1" parent="1">
          <mxGeometry x="360" y="620" width="120" height="60" as="geometry" />
        </mxCell>
        <mxCell id="cMItMVhZmOPaR7eOhh5o-34" value="***" style="rounded=0;whiteSpace=wrap;html=1;" vertex="1" parent="1">
          <mxGeometry x="343" y="960" width="110" height="50" as="geometry" />
        </mxCell>
        <mxCell id="cMItMVhZmOPaR7eOhh5o-40" value="sim" style="edgeStyle=orthogonalEdgeStyle;rounded=0;orthogonalLoop=1;jettySize=auto;html=1;entryX=0.5;entryY=0;entryDx=0;entryDy=0;" edge="1" parent="1" source="cMItMVhZmOPaR7eOhh5o-36" target="cMItMVhZmOPaR7eOhh5o-39">
          <mxGeometry relative="1" as="geometry" />
        </mxCell>
        <mxCell id="cMItMVhZmOPaR7eOhh5o-41" value="não" style="edgeStyle=orthogonalEdgeStyle;rounded=0;orthogonalLoop=1;jettySize=auto;html=1;entryX=0.5;entryY=0;entryDx=0;entryDy=0;" edge="1" parent="1" source="cMItMVhZmOPaR7eOhh5o-36" target="cMItMVhZmOPaR7eOhh5o-38">
          <mxGeometry relative="1" as="geometry" />
        </mxCell>
        <mxCell id="cMItMVhZmOPaR7eOhh5o-36" value="" style="rhombus;whiteSpace=wrap;html=1;rounded=0;" vertex="1" parent="1">
          <mxGeometry x="387" y="710" width="66" height="60" as="geometry" />
        </mxCell>
        <mxCell id="cMItMVhZmOPaR7eOhh5o-42" style="edgeStyle=orthogonalEdgeStyle;rounded=0;orthogonalLoop=1;jettySize=auto;html=1;entryX=0;entryY=0.5;entryDx=0;entryDy=0;" edge="1" parent="1" source="cMItMVhZmOPaR7eOhh5o-38" target="cMItMVhZmOPaR7eOhh5o-2">
          <mxGeometry relative="1" as="geometry">
            <Array as="points">
              <mxPoint x="110" y="790" />
              <mxPoint x="110" y="150" />
            </Array>
          </mxGeometry>
        </mxCell>
        <mxCell id="cMItMVhZmOPaR7eOhh5o-38" value="mensagem de erro" style="rounded=0;whiteSpace=wrap;html=1;" vertex="1" parent="1">
          <mxGeometry x="220" y="760" width="120" height="60" as="geometry" />
        </mxCell>
        <mxCell id="cMItMVhZmOPaR7eOhh5o-48" value="preenchido" style="edgeStyle=orthogonalEdgeStyle;rounded=0;orthogonalLoop=1;jettySize=auto;html=1;entryX=0.5;entryY=0;entryDx=0;entryDy=0;" edge="1" parent="1" source="cMItMVhZmOPaR7eOhh5o-39" target="cMItMVhZmOPaR7eOhh5o-45">
          <mxGeometry relative="1" as="geometry" />
        </mxCell>
        <mxCell id="cMItMVhZmOPaR7eOhh5o-39" value="numlab e pc" style="rounded=0;whiteSpace=wrap;html=1;" vertex="1" parent="1">
          <mxGeometry x="500" y="760" width="120" height="60" as="geometry" />
        </mxCell>
        <mxCell id="cMItMVhZmOPaR7eOhh5o-43" value="sim" style="edgeStyle=orthogonalEdgeStyle;rounded=0;orthogonalLoop=1;jettySize=auto;html=1;entryX=0.5;entryY=0;entryDx=0;entryDy=0;" edge="1" parent="1" source="cMItMVhZmOPaR7eOhh5o-45" target="cMItMVhZmOPaR7eOhh5o-47">
          <mxGeometry relative="1" as="geometry" />
        </mxCell>
        <mxCell id="cMItMVhZmOPaR7eOhh5o-44" value="não" style="edgeStyle=orthogonalEdgeStyle;rounded=0;orthogonalLoop=1;jettySize=auto;html=1;" edge="1" parent="1" source="cMItMVhZmOPaR7eOhh5o-45" target="cMItMVhZmOPaR7eOhh5o-38">
          <mxGeometry relative="1" as="geometry">
            <mxPoint x="274" y="890" as="targetPoint" />
            <Array as="points">
              <mxPoint x="280" y="870" />
            </Array>
          </mxGeometry>
        </mxCell>
        <mxCell id="cMItMVhZmOPaR7eOhh5o-45" value="" style="rhombus;whiteSpace=wrap;html=1;rounded=0;" vertex="1" parent="1">
          <mxGeometry x="381" y="840" width="66" height="60" as="geometry" />
        </mxCell>
        <mxCell id="cMItMVhZmOPaR7eOhh5o-47" value="obs" style="rounded=0;whiteSpace=wrap;html=1;" vertex="1" parent="1">
          <mxGeometry x="500" y="890" width="120" height="60" as="geometry" />
        </mxCell>
        <mxCell id="cMItMVhZmOPaR7eOhh5o-49" style="edgeStyle=orthogonalEdgeStyle;rounded=0;orthogonalLoop=1;jettySize=auto;html=1;entryX=0.564;entryY=-0.02;entryDx=0;entryDy=0;entryPerimeter=0;" edge="1" parent="1" source="cMItMVhZmOPaR7eOhh5o-47" target="cMItMVhZmOPaR7eOhh5o-34">
          <mxGeometry relative="1" as="geometry" />
        </mxCell>
      </root>
    </mxGraphModel>
  </diagram>
</mxfile>
